<?xml version="1.0" encoding="utf-8"?>
<svg version="1.1" x="0px" y="0px" viewBox="0 0 500 500" style="enable-background:new 0 0 500 500;" xmlns="http://www.w3.org/2000/svg">
  <g id="BACKGROUND"/>
  <g id="OBJECTS" style="transform-origin: 252.659px 208.505px;" transform="matrix(6.945486, 0, 0, 6.174204, -3.091089, 40.507088)">
    <g transform="matrix(-0.87753, -0.131297, 0.14305, -0.87753, 1207.676025, 1743.045288)">
      <g transform="matrix(1.0438,0,0,1,0,0)">
        <path style="fill-rule:evenodd;clip-rule:evenodd;" fill="#938af3" d="M1316.488,1507.816c-0.784,0.217-1.561,0.41-2.328,0.687 c-6.792,2.451-13.063,6.405-18.943,10.907c-6.436,4.928-12.298,10.811-17.431,17.327c-7.195,9.133-13.224,19.425-16.983,30.318 c-1.658,4.805-2.698,9.738-3.516,14.642c-0.039,0.167,0.06,0.337,0.221,0.38c0.161,0.043,0.323-0.058,0.362-0.225 c1.407-4.672,3.298-9.208,5.248-13.806c4.383-10.333,9.888-20.471,16.857-29.44c4.969-6.396,10.547-12.245,16.634-17.318 c5.594-4.661,11.702-8.437,17.961-11.814c0.713-0.385,1.384-0.815,2.092-1.209c0.118-0.049,0.175-0.189,0.127-0.313 C1316.741,1507.829,1316.606,1507.768,1316.488,1507.816z"/>
      </g>
      <g transform="matrix(1.0438,0,0,1,0,0)">
        <path style="fill-rule:evenodd;clip-rule:evenodd;" fill="#938af3" d="M1257.871,1581.852c-0.878-3.961-1.678-9.282-1.958-10.77l-1.015-5.338 c-0.463-1.977-1.06-3.552-2.115-3.017c-1.365,0.161-0.511,2.804-0.488,3.491l0.759,5.347c0.257,1.741,1.468,10.447,2.238,13.975 c0.403,1.846,1.399,2.704,1.619,2.784c0.53,0.193,1.448,0.183,2.306-0.716c1.035-1.084,2.785-4.655,3.053-5.085 c1.428-2.43,2.99-4.746,4.546-7.068c2.361-3.524,4.748-6.991,7.369-10.338c0.251-0.279,0.234-0.72-0.036-0.985 c-0.271-0.265-0.695-0.254-0.945,0.025c-2.087,1.963-4.144,3.906-6.052,6.037c-2.867,3.202-5.401,6.698-7.82,10.314 C1259.214,1580.694,1258.482,1581.336,1257.871,1581.852z"/>
      </g>
    </g>
  </g>
</svg>